<svg width="128.569946" height="100.000000" viewBox="0 0 128.57 100" fill="none" xmlns="http://www.w3.org/2000/svg" xmlns:xlink="http://www.w3.org/1999/xlink">
	<desc>
			Created with Pixso.
	</desc>
	<defs/>
	<path id="Vector" d="M1.2998 97.7747C1.89709 98.5214 2.66626 99.1125 3.5415 99.4975C4.41675 99.8826 5.37219 100.05 6.32629 99.986C7.28027 99.9218 8.20471 99.6278 9.02051 99.129C9.8363 98.6302 10.5194 97.9414 11.0114 97.1215L19.9283 82.2599L20.0525 82.1854C23.4795 80.1292 27.3198 78.8584 31.297 78.4646C35.2742 78.0708 39.2892 78.5637 43.053 79.9079L43.053 79.9079C55.3643 84.3048 68.7942 84.4477 81.1963 80.3137L81.1964 80.3137C89.6411 77.4987 97.2672 72.657 103.407 66.2123C109.547 59.7675 114.015 51.916 116.417 43.345L128.57 0.00012207L114.67 7.90649C107.865 11.7774 100.334 14.2016 92.5487 15.0272C84.7633 15.8528 76.8914 15.0621 69.4257 12.7045L69.4257 12.7045C63.7274 10.905 57.6788 10.5084 51.7944 11.5483C45.9099 12.5881 40.3636 15.0338 35.6273 18.6771L35.6272 18.6772C31.3972 21.931 27.9188 26.059 25.4294 30.7795C22.9399 35.5001 21.498 40.702 21.202 46.0305L20.2386 63.3708C20.0339 67.0558 19.0768 70.6598 17.4264 73.9608L15.494 77.8256L2.02515 89.6108C0.875977 90.6162 0.159302 92.0263 0.0241699 93.5472C-0.110962 95.0681 0.345947 96.5824 1.2998 97.7747Z" fill="#A0CC00" fill-opacity="1.000000" fill-rule="nonzero"/>
	<path id="Vector" d="M68.5992 66.8682C68.2532 67.2821 67.7625 67.5487 67.2268 67.6136C66.6912 67.6785 66.1509 67.5368 65.7161 67.2175C61.9565 64.4758 57.6285 62.6148 53.0526 61.7722C48.4766 60.9295 43.7695 61.1267 39.28 62.3493L29.3929 65.0424C29.1241 65.1155 28.8436 65.1351 28.5674 65.0998C28.2911 65.0646 28.0244 64.9752 27.7827 64.8369C27.5409 64.6985 27.3289 64.5139 27.1584 64.2936C26.988 64.0732 26.8628 63.8215 26.7897 63.5527L26.7389 63.3657C26.5914 62.8233 26.6655 62.2445 26.9447 61.7567C27.2239 61.2687 27.6853 60.9117 28.2277 60.764L38.1133 58.0714C43.2491 56.6726 48.6339 56.4478 53.8684 57.4138C59.103 58.3796 64.053 60.5115 68.3513 63.6511C68.5846 63.8226 68.7804 64.04 68.9264 64.29C69.0725 64.54 69.1659 64.8173 69.2007 65.1047C69.2356 65.3922 69.2112 65.6837 69.129 65.9614C69.047 66.2391 68.9089 66.497 68.7233 66.7192L68.5992 66.8682Z" fill="#85B200" fill-opacity="1.000000" fill-rule="nonzero"/>
	<path id="Vector" d="M93.021 51.3381C92.7332 51.8014 92.2775 52.1354 91.7491 52.2704C91.2207 52.4055 90.6605 52.3311 90.1858 52.0627C79.6202 46.0123 67.2174 44.0035 55.2822 46.4097L48.5447 47.7573C48.4998 47.7663 48.4551 47.7767 48.4108 47.7886L42.09 49.4854C41.5469 49.6312 40.9681 49.5552 40.481 49.2743C39.9939 48.9934 39.6383 48.5305 39.4926 47.9874L39.4423 47.8C39.3701 47.5311 39.3516 47.2506 39.3878 46.9745C39.424 46.6985 39.5142 46.4323 39.6533 46.191C39.7925 45.9499 39.9777 45.7385 40.1985 45.5688C40.4193 45.3992 40.6714 45.2748 40.9403 45.2026L47.3307 43.4872L47.6039 43.4232L54.4126 42.0614C67.389 39.445 80.874 41.6262 92.3639 48.2C92.6135 48.3409 92.832 48.531 93.0063 48.7587C93.1805 48.9863 93.307 49.2469 93.3781 49.5247C93.449 49.8024 93.4631 50.0917 93.4194 50.3751C93.3757 50.6584 93.2753 50.93 93.1239 51.1735L93.021 51.3381Z" fill="#85B200" fill-opacity="1.000000" fill-rule="nonzero"/>
	<path id="Vector" d="M99.5365 41.5308C97.2157 41.5302 94.8979 41.3648 92.6006 41.0358L86.1301 40.1115L73.5205 38.2081C72.9645 38.1241 72.4646 37.8228 72.1307 37.3703C71.7969 36.9178 71.6565 36.3512 71.7405 35.7952L71.7693 35.6036C71.8109 35.3283 71.9062 35.0638 72.05 34.8254C72.1937 34.587 72.3831 34.3792 72.6072 34.2139C72.8312 34.0485 73.0856 33.929 73.3558 33.8621C73.6261 33.795 73.907 33.782 74.1823 33.8235L86.7745 35.7242L93.2277 36.6458C98.2517 37.3687 103.363 37.2209 108.337 36.209C108.87 36.1037 109.422 36.2077 109.881 36.4994C110.339 36.7911 110.667 37.248 110.797 37.7753L110.844 37.9628C110.913 38.2418 110.925 38.5319 110.879 38.8156C110.833 39.0992 110.73 39.3707 110.576 39.6133C110.422 39.856 110.22 40.065 109.983 40.2275C109.746 40.3901 109.479 40.5029 109.197 40.5592C106.017 41.205 102.781 41.5304 99.5365 41.5308Z" fill="#85B200" fill-opacity="1.000000" fill-rule="nonzero"/>
	<path id="Vector" d="M34.6021 51.2746C34.1324 51.5828 33.5599 51.692 33.0099 51.5784C32.4598 51.4648 31.9774 51.1377 31.6683 50.6688L30.8417 49.4144C28.4657 45.8761 27.5576 41.5529 28.3093 37.3576C28.363 37.0578 28.4806 36.773 28.6539 36.5226C28.8274 36.2723 29.0527 36.0621 29.3146 35.9066C29.5764 35.7509 29.8687 35.6535 30.1715 35.6208C30.4744 35.5883 30.7806 35.6212 31.0697 35.7173L31.2549 35.7791C31.7404 35.9446 32.15 36.2792 32.4092 36.7218C32.6683 37.1644 32.7596 37.6854 32.6664 38.1897C32.1359 41.2424 32.8038 44.3821 34.531 46.9545L35.0762 47.7719L35.3768 48.23C35.5297 48.4628 35.635 48.7233 35.6871 48.9969C35.7391 49.2704 35.7368 49.5515 35.6803 49.8242C35.6237 50.0967 35.514 50.3556 35.3574 50.5858C35.2008 50.816 35.0004 51.0132 34.7676 51.166L34.6021 51.2746Z" fill="#85B200" fill-opacity="1.000000" fill-rule="nonzero"/>
	<path id="Vector" d="M51.0656 43.2124L50.8717 43.2124C50.3094 43.2124 49.7701 42.989 49.3724 42.5914C48.9749 42.1938 48.7515 41.6545 48.7515 41.0922L48.7515 32.6075C48.7466 27.7392 49.988 22.9507 52.3578 18.6981C52.4999 18.441 52.6936 18.2163 52.9269 18.0379C53.1602 17.8596 53.4279 17.7314 53.713 17.6617C53.9983 17.5919 54.2949 17.582 54.5841 17.6326C54.8734 17.6832 55.149 17.7932 55.3937 17.9556L55.5559 18.0637C56 18.3617 56.3154 18.8162 56.4392 19.3364C56.563 19.8568 56.486 20.4045 56.2236 20.8706C54.2274 24.4601 53.1818 28.5002 53.1858 32.6075L53.1858 41.0922C53.1858 41.6545 52.9624 42.1938 52.5648 42.5914C52.1672 42.989 51.6279 43.2124 51.0656 43.2124Z" fill="#85B200" fill-opacity="1.000000" fill-rule="nonzero"/>
	<path id="Vector" d="M67.6827 34.6419L67.4989 34.5806C67.2347 34.4926 66.9906 34.3534 66.7802 34.171C66.5698 33.9885 66.3975 33.7665 66.2729 33.5175C66.1484 33.2684 66.0741 32.9973 66.0544 32.7195C66.0347 32.4418 66.0698 32.1629 66.1578 31.8987L66.6029 30.5637C67.9581 26.5312 70.8335 23.1868 74.6169 21.2419C74.8892 21.1027 75.1881 21.0239 75.4935 21.0109C75.799 20.998 76.1035 21.0512 76.3865 21.1669C76.6694 21.2826 76.9241 21.4581 77.1329 21.6813C77.3417 21.9046 77.4999 22.1703 77.5964 22.4604L77.6577 22.6441C77.8156 23.1299 77.7944 23.6562 77.5979 24.1277C77.4015 24.5992 77.0427 24.9849 76.5867 25.2148C73.8596 26.6324 71.7887 29.0526 70.8096 31.9659L70.3646 33.301C70.1868 33.8344 69.8043 34.2753 69.3014 34.5268C68.7985 34.7783 68.2162 34.8197 67.6827 34.6419Z" fill="#85B200" fill-opacity="1.000000" fill-rule="nonzero"/>
	<path id="Vector" d="M128.57 0L114.871 19.076C110.191 25.5927 104.027 30.9016 96.8885 34.5633C89.7501 38.225 81.8424 40.1345 73.8196 40.1336C65.092 40.1337 56.5132 42.3939 48.9185 46.6941C41.3239 50.9944 34.9722 57.1881 30.4822 64.6722L19.9285 82.2599L11.0127 97.1205C10.5723 97.855 9.97791 98.4853 9.27063 98.9681C8.56323 99.4509 7.75977 99.7747 6.91528 99.9173C6.07092 100.06 5.20557 100.018 4.37903 99.7939C3.55237 99.5701 2.78406 99.1699 2.12695 98.6208C1.46973 98.0716 0.939453 97.3866 0.572266 96.6129C0.2052 95.8392 0.0101318 94.9951 0.000366211 94.1388C-0.00927734 93.2825 0.166626 92.4342 0.516113 91.6524C0.865601 90.8705 1.38025 90.1737 2.02478 89.6098L15.4941 77.8256L24.6815 60.2849C29.2671 51.5323 36.1602 44.2012 44.6141 39.0858C53.0681 33.9705 62.7606 31.2659 72.6417 31.2649C85.8228 31.2648 98.5511 26.457 108.441 17.7429L128.57 0Z" fill="#85B200" fill-opacity="1.000000" fill-rule="nonzero"/>
	<path id="Vector" d="M19.9285 82.2598L11.0127 97.1204C10.5723 97.8549 9.97791 98.4852 9.27063 98.968C8.56323 99.4508 7.75977 99.7746 6.91528 99.9172C6.07092 100.06 5.20557 100.018 4.37903 99.7939C3.55237 99.57 2.78406 99.1698 2.12695 98.6206C1.46973 98.0715 0.939453 97.3865 0.572266 96.6128C0.2052 95.8391 0.0101318 94.995 0.000366211 94.1387C-0.00927734 93.2824 0.166626 92.4341 0.516113 91.6523C0.865601 90.8704 1.38025 90.1736 2.02478 89.6097L15.4941 77.8254L19.9285 82.2598Z" fill="#719600" fill-opacity="1.000000" fill-rule="nonzero"/>
</svg>
