<svg width="100.000000" height="100.000000" viewBox="0 0 100 100" fill="none" xmlns="http://www.w3.org/2000/svg" xmlns:xlink="http://www.w3.org/1999/xlink">
	<desc>
			Created with Pixso.
	</desc>
	<defs>
		<clipPath id="clip711_199">
			<rect id="Icon" width="100.000000" height="100.000000" fill="white" fill-opacity="0"/>
		</clipPath>
	</defs>
	<rect id="Icon" width="100.000000" height="100.000000" fill="#FFFFFF" fill-opacity="0"/>
	<g clip-path="url(#clip711_199)">
		<path id="Vector" d="M99.9767 92.9075L92.1204 49.624C92.0421 49.192 91.774 48.8177 91.3901 48.6042L71.6162 37.6062C71.3596 37.4632 71.0719 37.4064 70.7893 37.4282L74.3867 83.8362L74.2662 83.8901L97.9312 94.5067C98.1237 94.5928 98.3284 94.6354 98.5321 94.6354C98.8546 94.6354 99.1741 94.5294 99.4368 94.3237C99.8661 93.9885 100.074 93.4432 99.9767 92.9075Z" fill="#28A248" fill-opacity="1.000000" fill-rule="nonzero"/>
		<path id="Vector" d="M50.0001 48.1202L29.7765 37.5868C29.5341 37.4604 29.2654 37.4089 29.0007 37.4266C29.0708 37.4223 29.1414 37.4227 29.2112 37.4282L25.6138 83.8361L49.3992 94.5068C49.5912 94.5927 49.796 94.6355 50.0001 94.6355L50.0001 48.1202Z" fill="#32BD56" fill-opacity="1.000000" fill-rule="nonzero"/>
		<path id="Vector" d="M29.2109 37.4283C28.9283 37.4065 28.6406 37.4633 28.384 37.6061L8.60999 48.6042C8.22595 48.8176 7.95801 49.1917 7.87964 49.6239L0.0235596 92.9074C-0.0736084 93.443 0.134155 93.9883 0.563232 94.3238C0.826294 94.5295 1.14563 94.6355 1.4679 94.6355C1.67163 94.6355 1.87659 94.5931 2.06897 94.5068L25.6049 83.948L29.2109 37.4283Z" fill="#56D777" fill-opacity="1.000000" fill-rule="nonzero"/>
		<path id="Vector" d="M70.7891 37.4275C70.5945 37.4425 70.4021 37.4943 70.2238 37.5873L50.0001 48.1205L50.0001 94.6358C50.0001 94.6358 50.0001 94.6358 50.0004 94.6358C50.2045 94.6358 50.4095 94.5932 50.6013 94.5071L74.3867 83.8364L70.7891 37.4275Z" fill="#2FB652" fill-opacity="1.000000" fill-rule="nonzero"/>
		<path id="Vector" d="M5.4989 62.741L3.90295 71.5338L27.5347 59.0521L28.0833 51.9741L28.1743 50.8003L5.4989 62.741Z" fill="#FFDB56" fill-opacity="1.000000" fill-rule="nonzero"/>
		<path id="Vector" d="M27.7473 56.3075L27.5345 59.052L3.90295 71.5337L0.0235596 92.9074C-0.0736084 93.4429 0.134155 93.9883 0.563232 94.3238C0.826294 94.5294 1.14563 94.6355 1.4679 94.6355C1.67163 94.6355 1.87659 94.5931 2.06897 94.5068L25.6049 83.948L27.7473 56.3075Z" fill="#A8EEFC" fill-opacity="1.000000" fill-rule="nonzero"/>
		<path id="Vector" d="M50.006 53.922L28.1743 50.8003L27.5347 59.0521L50.0001 93.1691L50.0001 80.7632L36.5945 59.6542L50.006 61.2583L50.006 53.922Z" fill="#FEB618" fill-opacity="1.000000" fill-rule="nonzero"/>
		<path id="Vector" d="M89.8335 47.7386L80.3344 42.4552L71.3418 44.5564L71.4543 46.0087L71.8984 51.738L89.8335 47.7386Z" fill="#FEB618" fill-opacity="1.000000" fill-rule="nonzero"/>
		<path id="Vector" d="M72.6958 62.0266L71.8442 51.0405L71.3417 44.5563L50.0059 53.9219L50.0059 61.2582L63.9426 55.1977L72.6958 62.0266Z" fill="#FFDB56" fill-opacity="1.000000" fill-rule="nonzero"/>
		<path id="Vector" d="M99.9766 92.9075L98.0034 82.0352L71.8984 51.738L72.696 62.0267L99.4677 94.2965C99.8746 93.9592 100.071 93.4295 99.9766 92.9075Z" fill="#FEB618" fill-opacity="1.000000" fill-rule="nonzero"/>
		<path id="Vector" d="M50.094 5.36426C38.7731 5.36426 29.5627 14.567 29.5627 25.8787C29.5627 32.876 32.8848 40.3885 39.437 48.2073C44.2493 53.9501 48.9962 57.6437 49.196 57.7982C49.4604 58.0026 49.7772 58.1048 50.0942 58.1048C50.411 58.1048 50.728 58.0026 50.9924 57.7982C51.1921 57.6437 55.9392 53.9501 60.7515 48.2073C67.3036 40.3885 70.6257 32.8762 70.6257 25.8787C70.6254 14.567 61.4149 5.36426 50.094 5.36426ZM57.6975 25.8785C57.6975 30.0743 54.2932 33.4758 50.094 33.4758C45.8948 33.4758 42.4905 30.0745 42.4905 25.8785C42.4905 21.6826 45.8948 18.2812 50.094 18.2812C54.2932 18.2812 57.6975 21.6829 57.6975 25.8785Z" fill="#FF4415" fill-opacity="1.000000" fill-rule="nonzero"/>
		<path id="Vector" d="M50.094 5.36426C49.1968 5.36426 48.313 5.42249 47.4458 5.53455C57.5206 6.83673 65.329 15.4635 65.329 25.8787C65.329 32.876 62.007 40.3885 55.4548 48.2073C52.3601 51.9003 49.2947 54.7438 47.446 56.3458C48.4722 57.2349 49.1249 57.743 49.196 57.7982C49.4604 58.0026 49.7772 58.1048 50.0942 58.1048C50.411 58.1048 50.728 58.0026 50.9924 57.7982C51.1921 57.6437 55.9392 53.9501 60.7515 48.2073C67.3036 40.3885 70.6257 32.8762 70.6257 25.8787C70.6254 14.567 61.4149 5.36426 50.094 5.36426Z" fill="#E13E15" fill-opacity="1.000000" fill-rule="nonzero"/>
		<path id="Vector" d="M50.6013 94.5069L59.446 90.5389L50.0001 80.7633L50.0001 94.6356C50.0001 94.6356 50.0001 94.6356 50.0004 94.6356C50.2045 94.6356 50.4093 94.5932 50.6013 94.5069Z" fill="#FFBF33" fill-opacity="1.000000" fill-rule="nonzero"/>
		<path id="Vector" d="M92.1201 49.624C92.0417 49.1919 91.7738 48.8177 91.3898 48.6042L89.8331 47.7384L71.8982 51.7379L98.0029 82.0349L92.1201 49.624Z" fill="#1EA4E9" fill-opacity="1.000000" fill-rule="nonzero"/>
		<path id="Vector" d="M49.9999 94.6355L49.9999 93.1691L27.5345 59.052L25.6133 83.8362L49.3987 94.507C49.5907 94.5931 49.7955 94.6355 49.9999 94.6355Z" fill="#1EA4E9" fill-opacity="1.000000" fill-rule="nonzero"/>
	</g>
</svg>
