<svg width="20.501953" height="20.502197" viewBox="0 0 20.502 20.5022" fill="none" xmlns="http://www.w3.org/2000/svg" xmlns:xlink="http://www.w3.org/1999/xlink">
	<desc>
			Created with Pixso.
	</desc>
	<defs/>
	<path id="Oval" d="M9.08069 18.1613C14.0957 18.1613 18.1613 14.0957 18.1613 9.08069C18.1613 4.06555 14.0957 0 9.08069 0C4.06555 0 0 4.06555 0 9.08069C0 14.0957 4.06555 18.1613 9.08069 18.1613Z" fill="#D8D8D8" fill-opacity="0" fill-rule="evenodd"/>
	<path id="Oval" d="M18.1613 9.08069C18.1613 14.0957 14.0957 18.1613 9.08069 18.1613C4.06555 18.1613 0 14.0957 0 9.08069C0 4.06555 4.06555 0 9.08069 0C14.0957 0 18.1613 4.06555 18.1613 9.08069ZM16.962 7.28308Q17.1613 8.15918 17.1613 9.08069Q17.1613 10.0021 16.962 10.8783Q16.8057 11.5659 16.5266 12.2257Q16.2413 12.9004 15.8464 13.5034Q15.3927 14.1963 14.7946 14.7946Q14.1963 15.3927 13.5034 15.8464Q12.9004 16.2413 12.2257 16.5266Q11.5659 16.8058 10.8782 16.962Q10.0021 17.1613 9.08069 17.1613Q8.15918 17.1613 7.28296 16.962Q6.59534 16.8057 5.93555 16.5266Q5.26086 16.2413 4.65796 15.8464Q3.96497 15.3928 3.36682 14.7946Q2.76855 14.1963 2.31494 13.5035Q1.92004 12.9004 1.63464 12.2257Q1.35559 11.5659 1.19922 10.8783Q1 10.0022 1 9.08069Q1 8.15918 1.19922 7.28296Q1.35559 6.59534 1.63464 5.93555Q1.92004 5.26086 2.31482 4.65784Q2.76855 3.96497 3.36682 3.36682Q3.96497 2.76855 4.65784 2.31494Q5.26086 1.92004 5.93555 1.63464Q6.59534 1.35559 7.28296 1.19922Q8.15918 1 9.08069 1Q10.0021 1 10.8783 1.19922Q11.5659 1.35559 12.2257 1.63464Q12.9004 1.92004 13.5035 2.31494Q14.1963 2.76855 14.7946 3.36682Q15.3927 3.96497 15.8464 4.65784Q16.2413 5.26086 16.5266 5.93555Q16.8058 6.59546 16.962 7.28308Z" fill="#181D19" fill-opacity="1.000000" fill-rule="evenodd"/>
	<path id="Path 4" d="M20.3252 19.6465L20.3535 19.6465C20.5515 19.8445 20.5515 20.1556 20.3535 20.3536C20.1555 20.5516 19.8444 20.5516 19.6464 20.3536L19.6464 20.3253L20.3252 19.6465ZM14.9089 15.5879L14.8807 15.5879C14.6827 15.3899 14.6827 15.0789 14.8807 14.8809C15.0787 14.6829 15.3898 14.6829 15.5878 14.8809L15.5878 14.9091L14.9089 15.5879Z" fill="#D8D8D8" fill-opacity="0" fill-rule="nonzero"/>
	<path id="Path 4" d="M20 20.0001L15.2343 15.2344" stroke="#181D19" stroke-opacity="1.000000" stroke-width="1.000000" stroke-linecap="round"/>
</svg>
