<svg width="20.550171" height="20.000000" viewBox="0 0 20.5502 20" fill="none" xmlns="http://www.w3.org/2000/svg" xmlns:xlink="http://www.w3.org/1999/xlink">
	<desc>
			Created with Pixso.
	</desc>
	<defs/>
	<path id="Vector" d="M6.55542 15.7092C5.37048 15.7092 4.41003 16.6698 4.41003 17.8546C4.41003 19.0396 5.37061 20 6.55542 20C7.74036 20 8.70081 19.0394 8.70081 17.8546C8.70093 16.6698 7.74036 15.7092 6.55542 15.7092ZM6.55542 19.0465C5.89722 19.0465 5.36353 18.5129 5.36353 17.8546C5.36353 17.1964 5.89722 16.6628 6.55542 16.6628C7.21375 16.6628 7.74731 17.1964 7.74731 17.8546C7.74731 18.5129 7.21375 19.0465 6.55542 19.0465Z" fill="#181D19" fill-opacity="1.000000" fill-rule="nonzero"/>
	<path id="Vector" d="M15.6139 15.7092C14.429 15.7092 13.4685 16.6698 13.4685 17.8546C13.4685 19.0396 14.4291 20 15.6139 20C16.7987 20 17.7593 19.0394 17.7593 17.8546C17.7593 16.6698 16.7988 15.7092 15.6139 15.7092ZM15.6139 19.0465C14.9557 19.0465 14.422 18.5129 14.422 17.8546C14.422 17.1964 14.9557 16.6628 15.6139 16.6628C16.2722 16.6628 16.8058 17.1964 16.8058 17.8546C16.8058 18.5129 16.2722 19.0465 15.6139 19.0465Z" fill="#181D19" fill-opacity="1.000000" fill-rule="nonzero"/>
	<path id="Vector" d="M20.4529 3.19434C20.3536 3.08582 20.2178 3.01794 20.0715 3.00354L4.5531 2.78906L4.12402 1.47791C3.82166 0.601562 3.00098 0.00976562 2.07385 0L0.476807 0C0.213501 0 0 0.213501 0 0.476807C0 0.740112 0.213501 0.953491 0.476807 0.953491L2.07385 0.953491C2.59229 0.964966 3.04871 1.29785 3.21814 1.78784L6.24561 10.9178L6.0072 11.4661C5.74133 12.1516 5.82117 12.9233 6.22168 13.5399C6.61841 14.1456 7.28589 14.5194 8.00964 14.5411L17.2826 14.5411C17.5459 14.5411 17.7593 14.3278 17.7593 14.0643C17.7593 13.801 17.5459 13.5876 17.2826 13.5876L8.00952 13.5876C7.60083 13.5774 7.22473 13.3624 7.0083 13.0155C6.79443 12.6729 6.75049 12.2507 6.88916 11.8712L7.07996 11.4421L17.1157 10.3933C18.218 10.2719 19.1249 9.47009 19.3802 8.39087L20.5245 3.59949C20.576 3.46155 20.5487 3.3064 20.4529 3.19434ZM18.4506 8.17639C18.2958 8.87109 17.7061 9.38354 16.9965 9.43982L7.07996 10.4648L4.86292 3.74255L19.4756 3.95715L18.4506 8.17639Z" fill="#181D19" fill-opacity="1.000000" fill-rule="nonzero"/>
</svg>
