<svg width="100.000000" height="100.000000" viewBox="0 0 100 100" fill="none" xmlns="http://www.w3.org/2000/svg" xmlns:xlink="http://www.w3.org/1999/xlink">
	<desc>
			Created with Pixso.
	</desc>
	<defs>
		<clipPath id="clip711_165">
			<rect id="Icon" width="100.000000" height="100.000000" fill="white" fill-opacity="0"/>
		</clipPath>
	</defs>
	<rect id="Icon" width="100.000000" height="100.000000" fill="#FFFFFF" fill-opacity="0"/>
	<g clip-path="url(#clip711_165)">
		<path id="Vector" d="M84.3738 4.02423L84.3738 95.976C84.3738 98.1992 82.573 100 80.3496 100L12.6535 100C10.4302 100 8.62927 98.1994 8.62927 95.976L8.62927 4.02423C8.62927 1.80078 10.4301 0 12.6535 0L29.3054 0L29.3054 5.82501C29.3054 6.93768 30.2068 7.8371 31.3176 7.8371L61.8869 7.8371C62.9976 7.8371 63.899 6.93768 63.899 5.82501L63.899 0L80.3498 0C82.5728 0 84.3738 1.80078 84.3738 4.02423Z" fill="#FEB618" fill-opacity="1.000000" fill-rule="nonzero"/>
		<path id="Vector" d="M84.3748 4.02423L84.3748 95.976C84.3748 98.1992 82.5721 100 80.3506 100L76.3889 100C78.6102 100 80.4131 98.1994 80.4131 95.976L80.4131 4.02423C80.413 1.80078 78.6102 0 76.3889 0L80.3506 0C82.5719 0 84.3748 1.80078 84.3748 4.02423Z" fill="#FB9927" fill-opacity="1.000000" fill-rule="nonzero"/>
		<path id="Vector" d="M84.3748 22.9194L84.3748 45.6678C82.6484 46.5431 80.6967 47.036 78.6283 47.036C71.5922 47.036 65.8859 41.3298 65.8859 34.2936C65.8859 27.2554 71.5922 21.5513 78.6283 21.5513C80.6967 21.5513 82.6484 22.0443 84.3748 22.9194Z" fill="#FB9927" fill-opacity="1.000000" fill-rule="nonzero"/>
		<path id="Vector" d="M77.8384 7.96985L77.8384 91.8913C77.8384 92.9335 76.9933 93.7786 75.9492 93.7786L17.0539 93.7786C16.0095 93.7786 15.1625 92.9335 15.1625 91.8913L15.1625 7.96985C15.1625 6.92761 16.0095 6.08057 17.0539 6.08057L29.3215 6.08057C29.4463 7.07257 30.2933 7.83722 31.3174 7.83722L61.8867 7.83722C62.9109 7.83722 63.758 7.07257 63.8826 6.08057L75.949 6.08057C76.9933 6.08057 77.8384 6.92761 77.8384 7.96985Z" fill="#F8F3F1" fill-opacity="1.000000" fill-rule="nonzero"/>
		<path id="Vector" d="M26.8837 6.08057L26.8837 11.644C26.8837 12.7548 27.7851 13.6561 28.8958 13.6561L30.0386 13.6561L30.0386 16.3522C30.0386 18.9298 32.1351 21.0262 34.7126 21.0262L58.2902 21.0262C60.8677 21.0262 62.9642 18.9298 62.9642 16.3522L62.9642 13.6559L64.1069 13.6559C65.2177 13.6559 66.1191 12.7546 66.1191 11.6439L66.1191 6.08057L26.8837 6.08057ZM59.946 16.3522C59.946 17.2657 59.2037 18.0081 58.2902 18.0081L34.7126 18.0081C33.7991 18.0081 33.0568 17.2657 33.0568 16.3522L33.0568 13.6559L59.946 13.6559L59.946 16.3522Z" fill="#EFE2DD" fill-opacity="1.000000" fill-rule="nonzero"/>
		<path id="Vector" d="M77.8398 7.96954L77.8398 91.8904C77.8398 92.933 76.9935 93.7793 75.951 93.7793L71.5781 93.7793C72.6207 93.7793 73.467 92.933 73.467 91.8904L73.467 7.96954C73.467 6.927 72.6207 6.08069 71.5781 6.08069L75.9508 6.08069C76.9936 6.08069 77.8398 6.92676 77.8398 7.96954Z" fill="#EFE2DD" fill-opacity="1.000000" fill-rule="nonzero"/>
		<path id="Vector" d="M70.868 28.235L22.1349 28.235C21.3016 28.235 20.626 27.5594 20.626 26.726C20.626 25.8926 21.3016 25.217 22.1349 25.217L70.868 25.217C71.7014 25.217 72.377 25.8926 72.377 26.726C72.377 27.5594 71.7014 28.235 70.868 28.235Z" fill="#EFE2DD" fill-opacity="1.000000" fill-rule="nonzero"/>
		<path id="Vector" d="M23.4035 86.569C22.606 86.569 21.9398 85.944 21.8978 85.1385C21.8545 84.3063 22.4939 83.5964 23.3264 83.553C24.4232 83.4958 25.5033 83.2364 26.5176 82.812C26.4785 82.4149 26.4898 82.0052 26.5535 81.5911C26.9328 79.118 28.1453 76.7928 29.9675 75.0435C31.7015 73.379 33.3347 73.6844 34.2852 74.5259C35.1584 75.2991 35.4893 76.5288 35.1279 77.6587C34.4175 79.8799 33.0684 81.8403 31.323 83.3536C31.7673 83.1851 32.1548 82.9413 32.2925 82.8503C33.0596 82.3427 34.2054 81.7165 35.2979 82.1384C35.5957 82.2534 36.0867 82.5311 36.3796 83.1657C36.4933 83.1345 36.6301 83.0843 36.7717 83.0104C37.6107 82.5731 38.4136 82.0534 39.1586 81.4659C39.855 80.9169 40.7785 80.8229 41.5687 81.221C42.2217 81.5501 42.6613 82.1497 42.7852 82.848C43.4832 82.4818 44.1365 82.0342 44.733 81.513C45.5398 80.8077 46.7393 80.7626 47.5847 81.4059C50.0568 83.2858 53.931 82.9417 57.3682 82.4716C58.1949 82.3583 58.9548 82.9364 59.0677 83.7622C59.1807 84.588 58.6029 85.3489 57.7771 85.4618C53.9377 85.9874 49.5969 86.3507 46.2634 84.1657C45.4222 84.8364 44.5031 85.3999 43.524 85.845C43.2404 85.9741 42.5762 86.2765 41.7988 86.1266C40.9812 85.9696 40.342 85.3835 40.0232 84.5731C39.4263 84.9811 38.8051 85.3536 38.1662 85.6866C37.7474 85.905 36.2798 86.5724 34.9789 85.9968C34.6152 85.8358 34.3076 85.5966 34.0695 85.2946C34.0342 85.3171 33.9968 85.3411 33.9578 85.3671C31.6548 86.8911 29.3361 86.9325 27.8406 85.5401C26.4705 86.1294 24.9966 86.4882 23.483 86.5671C23.4566 86.5685 23.4299 86.569 23.4035 86.569ZM39.8031 83.2386C39.8029 83.2403 39.8029 83.2421 39.8029 83.2438C39.8029 83.2415 39.8031 83.2397 39.8031 83.2386ZM32.0977 77.1827C32.0845 77.1948 32.071 77.2075 32.0574 77.2206C31.099 78.1407 30.3691 79.2747 29.9273 80.5087C30.8723 79.554 31.6257 78.4224 32.0977 77.1827Z" fill="#EFE2DD" fill-opacity="1.000000" fill-rule="nonzero"/>
		<path id="Vector" d="M38.31 48.4274L38.1059 48.4274C37.2725 48.4274 36.5969 47.7518 36.5969 46.9184C36.5969 46.085 37.2725 45.4094 38.1059 45.4094L38.31 45.4094C39.1434 45.4094 39.819 46.085 39.819 46.9184C39.819 47.7518 39.1434 48.4274 38.31 48.4274Z" fill="#EFE2DD" fill-opacity="1.000000" fill-rule="nonzero"/>
		<path id="Vector" d="M43.0867 48.4274L42.8826 48.4274C42.0493 48.4274 41.3737 47.7518 41.3737 46.9184C41.3737 46.085 42.0493 45.4094 42.8826 45.4094L43.0867 45.4094C43.9202 45.4094 44.5957 46.085 44.5957 46.9184C44.5957 47.7518 43.9202 48.4274 43.0867 48.4274Z" fill="#EFE2DD" fill-opacity="1.000000" fill-rule="nonzero"/>
		<path id="Vector" d="M47.8633 48.4274L47.6592 48.4274C46.8259 48.4274 46.1503 47.7518 46.1503 46.9184C46.1503 46.085 46.8259 45.4094 47.6592 45.4094L47.8633 45.4094C48.6968 45.4094 49.3723 46.085 49.3723 46.9184C49.3723 47.7518 48.6968 48.4274 47.8633 48.4274Z" fill="#EFE2DD" fill-opacity="1.000000" fill-rule="nonzero"/>
		<path id="Vector" d="M52.6401 48.4274L52.436 48.4274C51.6026 48.4274 50.927 47.7518 50.927 46.9184C50.927 46.085 51.6026 45.4094 52.436 45.4094L52.6401 45.4094C53.4734 45.4094 54.149 46.085 54.149 46.9184C54.149 47.7518 53.4734 48.4274 52.6401 48.4274Z" fill="#EFE2DD" fill-opacity="1.000000" fill-rule="nonzero"/>
		<path id="Vector" d="M70.4235 42.5089L37.559 42.5089C36.7256 42.5089 36.05 41.8334 36.05 40.9999C36.05 40.1666 36.7256 39.491 37.559 39.491L70.4235 39.491C71.2569 39.491 71.9325 40.1666 71.9325 40.9999C71.9327 41.8334 71.2569 42.5089 70.4235 42.5089Z" fill="#EFE2DD" fill-opacity="1.000000" fill-rule="nonzero"/>
		<path id="Vector" d="M46.4171 36.8423L37.559 36.8423C36.7256 36.8423 36.05 36.1667 36.05 35.3333C36.05 34.4999 36.7256 33.8243 37.559 33.8243L46.4171 33.8243C47.2504 33.8243 47.926 34.4999 47.926 35.3333C47.926 36.1667 47.2504 36.8423 46.4171 36.8423Z" fill="#EFE2DD" fill-opacity="1.000000" fill-rule="nonzero"/>
		<path id="Vector" d="M38.31 68.5905L38.1059 68.5905C37.2725 68.5905 36.5969 67.9149 36.5969 67.0815C36.5969 66.2481 37.2725 65.5725 38.1059 65.5725L38.31 65.5725C39.1434 65.5725 39.819 66.2481 39.819 67.0815C39.8192 67.9149 39.1434 68.5905 38.31 68.5905Z" fill="#EFE2DD" fill-opacity="1.000000" fill-rule="nonzero"/>
		<path id="Vector" d="M43.0867 68.5905L42.8826 68.5905C42.0493 68.5905 41.3737 67.9149 41.3737 67.0815C41.3737 66.2481 42.0493 65.5725 42.8826 65.5725L43.0867 65.5725C43.9202 65.5725 44.5957 66.2481 44.5957 67.0815C44.5957 67.9149 43.9202 68.5905 43.0867 68.5905Z" fill="#EFE2DD" fill-opacity="1.000000" fill-rule="nonzero"/>
		<path id="Vector" d="M47.8633 68.5905L47.6592 68.5905C46.8259 68.5905 46.1503 67.9149 46.1503 67.0815C46.1503 66.2481 46.8259 65.5725 47.6592 65.5725L47.8633 65.5725C48.6968 65.5725 49.3723 66.2481 49.3723 67.0815C49.3726 67.9149 48.6968 68.5905 47.8633 68.5905Z" fill="#EFE2DD" fill-opacity="1.000000" fill-rule="nonzero"/>
		<path id="Vector" d="M52.6401 68.5905L52.436 68.5905C51.6026 68.5905 50.927 67.9149 50.927 67.0815C50.927 66.2481 51.6026 65.5725 52.436 65.5725L52.6401 65.5725C53.4734 65.5725 54.149 66.2481 54.149 67.0815C54.149 67.9149 53.4734 68.5905 52.6401 68.5905Z" fill="#EFE2DD" fill-opacity="1.000000" fill-rule="nonzero"/>
		<path id="Vector" d="M70.4235 62.6719L37.559 62.6719C36.7256 62.6719 36.05 61.9963 36.05 61.1629C36.05 60.3295 36.7256 59.6539 37.559 59.6539L70.4235 59.6539C71.2569 59.6539 71.9325 60.3295 71.9325 61.1629C71.9327 61.9963 71.2569 62.6719 70.4235 62.6719Z" fill="#EFE2DD" fill-opacity="1.000000" fill-rule="nonzero"/>
		<path id="Vector" d="M46.4171 57.0052L37.559 57.0052C36.7256 57.0052 36.05 56.3297 36.05 55.4963C36.05 54.6629 36.7256 53.9873 37.559 53.9873L46.4171 53.9873C47.2504 53.9873 47.926 54.6629 47.926 55.4963C47.926 56.3297 47.2504 57.0052 46.4171 57.0052Z" fill="#EFE2DD" fill-opacity="1.000000" fill-rule="nonzero"/>
		<path id="Vector" d="M58.2906 19.2151L34.7125 19.2151C32.1352 19.2151 30.0383 17.1185 30.0383 14.541L30.0383 9.42999C30.0383 8.59662 30.7139 7.92102 31.5473 7.92102C32.3807 7.92102 33.0563 8.59662 33.0563 9.42999L33.0563 14.5411C33.0563 15.4542 33.7993 16.1972 34.7123 16.1972L58.2905 16.1972C59.2036 16.1972 59.9465 15.4542 59.9465 14.5411L59.9465 9.42999C59.9465 8.59662 60.6221 7.92102 61.4555 7.92102C62.2889 7.92102 62.9645 8.59662 62.9645 9.42999L62.9645 14.5411C62.9647 17.1185 60.8678 19.2151 58.2906 19.2151Z" fill="#FCA62F" fill-opacity="1.000000" fill-rule="nonzero"/>
		<path id="Vector" d="M64.1072 10.6373L28.8959 10.6373C27.7845 10.6373 26.8838 9.73651 26.8838 8.62518L26.8838 0L66.1191 0L66.1191 8.62518C66.1191 9.73633 65.2183 10.6373 64.1072 10.6373Z" fill="#12C65A" fill-opacity="1.000000" fill-rule="nonzero"/>
		<path id="Vector" d="M66.1191 0L66.1191 8.62579C66.1191 9.73651 65.2177 10.6379 64.107 10.6379L60.1453 10.6379C61.256 10.6379 62.1573 9.73651 62.1573 8.62579L62.1573 0L66.1191 0Z" fill="#0FAD4E" fill-opacity="1.000000" fill-rule="nonzero"/>
		<path id="Vector" d="M34.057 6.82776L33.863 6.82776C33.0297 6.82776 32.3541 6.15222 32.3541 5.31879C32.3541 4.48541 33.0297 3.80981 33.863 3.80981L34.057 3.80981C34.8904 3.80981 35.566 4.48541 35.566 5.31879C35.566 6.15222 34.8904 6.82776 34.057 6.82776Z" fill="#FFFFFF" fill-opacity="1.000000" fill-rule="nonzero"/>
		<path id="Vector" d="M59.1401 6.82776L58.9461 6.82776C58.1127 6.82776 57.4371 6.15222 57.4371 5.31879C57.4371 4.48541 58.1127 3.80981 58.9461 3.80981L59.1401 3.80981C59.9734 3.80981 60.649 4.48541 60.649 5.31879C60.649 6.15222 59.9734 6.82776 59.1401 6.82776Z" fill="#FFFFFF" fill-opacity="1.000000" fill-rule="nonzero"/>
		<path id="Vector" d="M91.3707 30.7502C91.3707 37.7874 85.6659 43.4922 78.6287 43.4922C71.5915 43.4922 65.8867 37.7874 65.8867 30.7502C65.8867 23.713 71.5915 18.0082 78.6287 18.0082C85.6659 18.0082 91.3707 23.713 91.3707 30.7502Z" fill="#12C65A" fill-opacity="1.000000" fill-rule="evenodd"/>
		<path id="Vector" d="M91.3707 30.7506C91.3707 37.7867 85.6664 43.493 78.6284 43.493C77.9623 43.493 77.3084 43.4426 76.6686 43.3442C82.7752 42.4005 87.4512 37.121 87.4512 30.7506C87.4512 24.3784 82.7752 19.1006 76.6686 18.1591C77.3084 18.0585 77.9623 18.0081 78.6284 18.0081C85.6664 18.0081 91.3707 23.7123 91.3707 30.7506Z" fill="#0FAD4E" fill-opacity="1.000000" fill-rule="nonzero"/>
		<path id="Vector" d="M75.8492 36.2833C75.4631 36.2833 75.0768 36.1359 74.7822 35.8414L72.4348 33.4939C71.8453 32.9047 71.8453 31.9492 72.4348 31.3597C73.024 30.7704 73.9795 30.7704 74.569 31.3597L75.8492 32.64L82.8304 25.6588C83.4197 25.0695 84.3752 25.0695 84.9647 25.6588C85.5541 26.248 85.5541 27.2035 84.9647 27.7929L76.9164 35.8412C76.6215 36.1359 76.2354 36.2833 75.8492 36.2833Z" fill="#FFFFFF" fill-opacity="1.000000" fill-rule="nonzero"/>
		<path id="Vector" d="M29.8768 43.1802L24.0418 43.1802C23.4861 43.1802 23.0358 42.7298 23.0358 42.1741L23.0358 36.3392C23.0358 35.7835 23.4861 35.3331 24.0418 35.3331L29.8768 35.3331C30.4324 35.3331 30.8828 35.7835 30.8828 36.3392L30.8828 42.1741C30.8828 42.7296 30.4324 43.1802 29.8768 43.1802Z" fill="#B5CCBE" fill-opacity="1.000000" fill-rule="nonzero"/>
		<path id="Vector" d="M29.8768 63.3434L24.0418 63.3434C23.4861 63.3434 23.0358 62.893 23.0358 62.3373L23.0358 56.5024C23.0358 55.9467 23.4861 55.4963 24.0418 55.4963L29.8768 55.4963C30.4324 55.4963 30.8828 55.9467 30.8828 56.5024L30.8828 62.3373C30.8828 62.893 30.4324 63.3434 29.8768 63.3434Z" fill="#B5CCBE" fill-opacity="1.000000" fill-rule="nonzero"/>
	</g>
</svg>
